<svg enable-background="new 0 0 24 24" height="512" viewBox="0 0 24 24" width="512" xmlns="http://www.w3.org/2000/svg"><g id="Color"><g><path d="m1.75 15h7.5c.965 0 1.75-.785 1.75-1.75v-4c0-.965-.785-1.75-1.75-1.75h-7.5c-.965 0-1.75.785-1.75 1.75v4c0 .965.785 1.75 1.75 1.75z" fill="#cfd8dc"/></g><g><path d="m1.75 24h7.5c.965 0 1.75-.785 1.75-1.75v-4c0-.965-.785-1.75-1.75-1.75h-7.5c-.965 0-1.75.785-1.75 1.75v4c0 .965.785 1.75 1.75 1.75z" fill="#cfd8dc"/></g><g><path d="m1.75 6h12.5c.965 0 1.75-.785 1.75-1.75v-2.5c0-.965-.785-1.75-1.75-1.75h-12.5c-.965 0-1.75.785-1.75 1.75v2.5c0 .965.785 1.75 1.75 1.75z" fill="#03a9f4"/></g></g><g id="regular"><g><path d="m9.25 15h-7.5c-.965 0-1.75-.785-1.75-1.75v-4c0-.965.785-1.75 1.75-1.75h7.5c.965 0 1.75.785 1.75 1.75v4c0 .965-.785 1.75-1.75 1.75zm-7.5-6c-.138 0-.25.112-.25.25v4c0 .138.112.25.25.25h7.5c.138 0 .25-.112.25-.25v-4c0-.138-.112-.25-.25-.25z"/></g><g><path d="m9.25 24h-7.5c-.965 0-1.75-.785-1.75-1.75v-4c0-.965.785-1.75 1.75-1.75h7.5c.965 0 1.75.785 1.75 1.75v4c0 .965-.785 1.75-1.75 1.75zm-7.5-6c-.138 0-.25.112-.25.25v4c0 .138.112.25.25.25h7.5c.138 0 .25-.112.25-.25v-4c0-.138-.112-.25-.25-.25z"/></g><g><path d="m23.25 9h-9.5c-.414 0-.75-.336-.75-.75s.336-.75.75-.75h9.5c.414 0 .75.336.75.75s-.336.75-.75.75z"/></g><g><path d="m23.25 12h-9.5c-.414 0-.75-.336-.75-.75s.336-.75.75-.75h9.5c.414 0 .75.336.75.75s-.336.75-.75.75z"/></g><g><path d="m23.25 15h-9.5c-.414 0-.75-.336-.75-.75s.336-.75.75-.75h9.5c.414 0 .75.336.75.75s-.336.75-.75.75z"/></g><g><path d="m23.25 18h-9.5c-.414 0-.75-.336-.75-.75s.336-.75.75-.75h9.5c.414 0 .75.336.75.75s-.336.75-.75.75z"/></g><g><path d="m23.25 21h-9.5c-.414 0-.75-.336-.75-.75s.336-.75.75-.75h9.5c.414 0 .75.336.75.75s-.336.75-.75.75z"/></g><g><path d="m23.25 24h-9.5c-.414 0-.75-.336-.75-.75s.336-.75.75-.75h9.5c.414 0 .75.336.75.75s-.336.75-.75.75z"/></g><g><g><path d="m20.5 5c-1.379 0-2.5-1.122-2.5-2.5s1.121-2.5 2.5-2.5 2.5 1.122 2.5 2.5-1.121 2.5-2.5 2.5zm0-3.5c-.552 0-1 .449-1 1s.448 1 1 1 1-.449 1-1-.448-1-1-1z"/></g><g><path d="m23.25 6c-.192 0-.384-.073-.53-.22l-1.35-1.35c-.293-.293-.293-.768 0-1.061s.768-.293 1.061 0l1.35 1.35c.293.293.293.768 0 1.061-.147.147-.34.22-.531.22z"/></g></g><g><path d="m14.25 6h-12.5c-.965 0-1.75-.785-1.75-1.75v-2.5c0-.965.785-1.75 1.75-1.75h12.5c.965 0 1.75.785 1.75 1.75v2.5c0 .965-.785 1.75-1.75 1.75zm-12.5-4.5c-.138 0-.25.112-.25.25v2.5c0 .138.112.25.25.25h12.5c.138 0 .25-.112.25-.25v-2.5c0-.138-.112-.25-.25-.25z"/></g></g></svg>